<?xml version="1.0" encoding="UTF-8"?>
<svg xmlns="http://www.w3.org/2000/svg" id="Layer_2" data-name="Layer 2" viewBox="0 0 358.48 84.32">
  <defs>
    <style>
      .cls-1 {
        fill: #fff;
      }

      .cls-1, .cls-2, .cls-3, .cls-4, .cls-5 {
        stroke-width: 0px;
      }

      .cls-2 {
        fill: #e91d24;
      }

      .cls-3 {
        fill-rule: evenodd;
      }

      .cls-3, .cls-4 {
        fill: #006c45;
      }

      .cls-5 {
        fill: #e53f2e;
      }
    </style>
  </defs>
  <g id="Layer_1-2" data-name="Layer 1">
    <g>
      <circle class="cls-1" cx="42.16" cy="42.16" r="41.74"></circle>
      <path class="cls-4" d="M42.16,0C18.87,0,0,18.87,0,42.16s18.87,42.16,42.16,42.16,42.16-18.88,42.16-42.16S65.44,0,42.16,0M42.16,83.51C19.36,83.51.81,64.96.81,42.16S19.36.8,42.16.8s41.35,18.55,41.35,41.36-18.55,41.35-41.35,41.35Z"></path>
      <rect class="cls-5" x="44.75" y="22.58" width=".73" height=".24"></rect>
      <rect class="cls-5" x="38.22" y="22.58" width=".73" height=".24"></rect>
      <polygon class="cls-2" points="48.84 35.43 48.84 22.21 35.62 22.21 35.62 35.43 22.41 35.43 22.41 48.65 35.62 48.65 35.62 61.87 48.84 61.87 48.84 48.65 62.06 48.65 62.06 35.43 48.84 35.43"></polygon>
      <path class="cls-3" d="M72.59,20.52c1.57,3.09,3,6.19,3.62,9.44.06.53.24,1.14-.27,1.22.09.6.12,1.22.11,1.82-.02.71-.12,1.39-.28,1.98.69.52,1.36,1.05,2.06,1.57-.4-4.67.82-6.66.91-9.95.55,2.15.73,5.2.79,8.24.67-1.05,1.52-2.2,1.97-3.33-.39,2.62-1.12,5.09-2.48,7.31-.18.22-.5.37-.75.29-.2.7-.4,1.39-.62,2.07-.24.75-.5,1.48-.78,2.18l-.02.24c.99-2,2.27-3.6,3.63-5.09-1.11,2.34-1.65,5.7-3.39,7.1.13.52.01.88-.22,1.04,0,1.62-.19,3.25-.54,4.65.22.35.45.7.68,1.05,1.22-4.52,3.06-5.97,4.28-9.03-.23,2.21-1.11,5.14-2.1,8.01.99-.76,2.19-1.54,3-2.44-1.27,2.32-2.81,4.39-4.84,6-.2.12-.46.16-.66.09-.77,1.09-1.58,2.13-2.51,3.03-.16.45-.37.94-.62,1.35,2.03-1.81,4.15-2.77,6.35-3.8-2.36,1.88-4.32,5.21-6.84,5.96-.1.66-.42,1-.77,1.04-.26.3-.64.74-.9,1.03.33.1.43.6.47,1.18.09,2.39.04,4.68-.23,6.83l-.09.22c-.37-1.62-.73-3.23-1.1-4.85-1.87,3.74-4.73,5-7.1,7.51.95-1.72,2.12-3.46,3.16-5.19-1.99,1.89-4.43,3.74-7.4,5.38-.46.24-.57.91-1.03.26-.59-.89.3-.72.58-.97,3.17-1.85,6.06-3.85,8.17-6.27-4.89,2.65-7.52,2.42-11.25,4.1,3.34-2.79,6.98-5.15,10.92-7.1-1.88-.16-3.22-.65-5.64-.47,2.86-1.12,5.91-1.51,9.08-1.48.45.03.72.13.85.28l.78-.83-.07-.1c-1.41-2.53-2.2-5.35-2.63-8.34.68,1.49,1.81,2.79,2.44,4.21-.3-3.62.34-6.94.98-9.88.13,3.11,1.4,7.56.83,11.01.85-1.72,1.65-4.19,2.35-6.45-1.17-1.98-1.58-3.89-2.49-5.79,1.19,1.14,2.06,2.43,2.9,3.74.2-1.24.31-2.58.27-3.96l-.09-.06c-1.93-1.53-3.47-3.49-4.78-5.69,1.02.95,2.33,1.6,3.29,2.51-1.41-2.74-2-5.56-2.44-8.07,1.1,2.37,3.5,5.4,4.21,8.25.11-2.26-.14-4.52-.48-6.77-1.42-1.31-2.38-2.74-3.7-4.02,1.12.5,2.11,1.12,3.04,1.8-.2-.91-.49-1.72-.95-2.38-1.78-.15-3.45-.82-4.81-1.43.97.21,2.35.11,3.53.16-1.41-.84-2.9-2.08-4.54-3.35,1.71.52,3.35,1.12,4.82,1.89-.79-1.58-1.79-3.35-2.89-4.89-.3.47-.72.57-1.26.3-2-1.08-3.89-2.48-5.7-4,1.36.44,2.74.92,4.1,1.35-3.55-3.6-3.78-6.15-5.73-8.47,2.46,1.9,5.09,4.09,7.43,7.28-.29-1.95-.52-4.21-1.05-6.1,1.78,2.64,2.92,5.43,3.42,8.39.09.64-.11,1.02-.77,1.01,1.01,1.73,2.08,3.71,2.8,5.33.4.22.78.46,1.14.71-1.67-3.96-1.3-6.56-2.13-9.82M75.79,31.74h-.02c-.02.26-.28.41-.76.46h-.25c.38.91.62,1.78.81,2.64h0c.14-.56.23-1.19.25-1.85.01-.41,0-.83-.04-1.25ZM78.03,38.9c-.07-.16-.09-.39-.02-.73-.24,0-.59-.12-1.08-.47-.22-.17-.43-.33-.63-.5.33,1.73.6,3.58.6,5.28.17-.45.32-.92.47-1.39.23-.72.45-1.45.66-2.2ZM76.49,54.85c-.14-.16-.15-.46.13-.92-.18-.07-.42-.24-.69-.59-.28,1.21-.81,2.66-1.43,3.94.78-.74,1.41-1.56,1.98-2.42Z"></path>
      <path class="cls-3" d="M11.73,20.52c-1.57,3.09-3,6.19-3.62,9.44-.06.53-.24,1.14.27,1.22-.09.6-.12,1.22-.11,1.82.02.71.12,1.39.28,1.98-.69.52-1.37,1.05-2.06,1.57.4-4.67-.82-6.66-.91-9.95-.55,2.15-.73,5.2-.79,8.24-.67-1.05-1.53-2.2-1.97-3.33.39,2.62,1.12,5.09,2.48,7.31.18.22.5.37.75.29.2.7.4,1.39.62,2.07.24.75.5,1.48.78,2.18l.02.24c-.99-2-2.27-3.6-3.63-5.09,1.11,2.34,1.65,5.7,3.39,7.1-.13.52-.01.88.22,1.04,0,1.62.19,3.25.54,4.65-.22.35-.45.7-.68,1.05-1.22-4.52-3.06-5.97-4.28-9.03.23,2.21,1.11,5.14,2.1,8.01-.99-.76-2.19-1.54-3-2.44,1.27,2.32,2.81,4.39,4.84,6,.2.12.46.16.66.09.77,1.09,1.58,2.13,2.52,3.03.15.45.36.94.61,1.35-2.03-1.81-4.15-2.77-6.35-3.8,2.36,1.88,4.32,5.21,6.84,5.96.1.66.42,1,.77,1.04.26.3.64.74.9,1.03-.33.1-.42.6-.47,1.18-.09,2.39-.04,4.68.22,6.83l.09.22c.37-1.62.73-3.23,1.1-4.85,1.87,3.74,4.73,5,7.1,7.51-.95-1.72-2.12-3.46-3.16-5.19,1.99,1.89,4.44,3.74,7.4,5.38.46.24.57.91,1.03.26.59-.89-.3-.72-.58-.97-3.17-1.85-6.07-3.85-8.17-6.27,4.88,2.65,7.51,2.42,11.25,4.1-3.34-2.79-6.98-5.15-10.92-7.1,1.88-.16,3.22-.65,5.64-.47-2.86-1.12-5.91-1.51-9.08-1.48-.45.03-.72.13-.85.28l-.78-.83.07-.1c1.41-2.53,2.2-5.35,2.63-8.34-.68,1.49-1.81,2.79-2.44,4.21.3-3.62-.33-6.94-.98-9.88-.13,3.11-1.4,7.56-.83,11.01-.85-1.72-1.65-4.19-2.35-6.45,1.18-1.98,1.58-3.89,2.49-5.79-1.19,1.14-2.06,2.43-2.9,3.74-.19-1.24-.31-2.58-.27-3.96l.09-.06c1.93-1.53,3.47-3.49,4.78-5.69-1.02.95-2.33,1.6-3.29,2.51,1.41-2.74,1.99-5.56,2.44-8.07-1.1,2.37-3.5,5.4-4.21,8.25-.11-2.26.14-4.52.48-6.77,1.42-1.31,2.38-2.74,3.7-4.02-1.12.5-2.11,1.12-3.04,1.8.2-.91.49-1.72.95-2.38,1.78-.15,3.45-.82,4.81-1.43-.97.21-2.35.11-3.53.16,1.41-.84,2.9-2.08,4.54-3.35-1.71.52-3.35,1.12-4.82,1.89.78-1.58,1.79-3.35,2.88-4.89.3.47.72.57,1.26.3,2-1.08,3.89-2.48,5.7-4-1.36.44-2.74.92-4.1,1.35,3.55-3.6,3.78-6.15,5.73-8.47-2.46,1.9-5.09,4.09-7.43,7.28.29-1.95.52-4.21,1.05-6.1-1.77,2.64-2.91,5.43-3.41,8.39-.09.64.11,1.02.77,1.01-1.01,1.73-2.08,3.71-2.8,5.33-.4.22-.78.46-1.14.71,1.67-3.96,1.3-6.56,2.13-9.82M8.53,31.74h.02c.02.26.28.41.76.46h.25c-.38.91-.62,1.78-.81,2.64h0c-.14-.56-.23-1.19-.25-1.85-.01-.41,0-.83.04-1.25ZM6.29,38.9c.07-.16.09-.39.02-.73.24,0,.59-.12,1.08-.47.22-.17.43-.33.64-.5-.33,1.73-.6,3.58-.6,5.28-.17-.45-.32-.92-.48-1.39-.23-.72-.45-1.45-.66-2.2ZM7.83,54.85c.14-.16.15-.46-.14-.92.19-.07.42-.24.69-.59.28,1.21.81,2.66,1.43,3.94-.78-.74-1.41-1.56-1.98-2.42Z"></path>
      <path class="cls-3" d="M32.18,5.75l-.13.09-.05.15-.35.07c-.03-.17,0-.34.1-.51.1-.17.24-.26.41-.3.11-.02.26-.02.46,0l.41.02h.03l.07-.05.04-.17.37-.08c.01.13.01.23,0,.29l-.07.2-.1.12-.12.1-.1.05-.12.04h-.13c-.18,0-.27,0-.27,0l-.25-.03h-.2Z"></path>
      <path class="cls-3" d="M29.13,72.38l1.22.42-.08,3.01,1.77-2.43,1.18.41-2.7,3.3-1.26-.44-.13-4.27ZM33.46,73.81l-1.17,3.82,1.18.36,1.17-3.82-1.18-.36ZM34.65,74.13l3.25.57-.15.84-2.04-.36-.11.63,1.89.33-.14.8-1.89-.33-.14.78,2.1.37-.15.89-3.32-.59.69-3.93ZM38.2,74.75l3.74.33-.09.98-1.25-.11-.26,3-1.23-.11.26-3-1.25-.11.09-.98Z"></path>
      <path class="cls-3" d="M42.85,75.04l1.15-.1,1.69,2.07-.19-2.2,1.16-.1.35,3.98-1.16.1-1.68-2.05.19,2.18-1.16.1-.35-3.98ZM50,77.51l-1.39.24-.07.68-1.24.22.78-4.19,1.33-.23,2.17,3.67-1.27.22-.31-.62ZM49.59,76.71l-.68-1.34-.18,1.49.87-.15ZM50.36,74.02l1.23,3.8.96-.31-.94-2.89,1.68,2.65.86-.28-.2-3.14.94,2.89.96-.31-1.23-3.8-1.54.5.16,2.5-1.35-2.12-1.54.5Z"></path>
      <path class="cls-3" d="M25.6,11.74l1.15-.25c.09.31.11.6.07.86-.04.26-.14.5-.3.71-.16.21-.4.41-.72.59-.39.22-.75.34-1.06.37-.31.02-.64-.06-.98-.25-.34-.19-.64-.51-.89-.96-.33-.6-.43-1.15-.29-1.65.14-.5.5-.91,1.09-1.23.46-.25.87-.36,1.23-.32.36.04.71.21,1.05.53l-.87.77-.24-.18c-.11-.05-.22-.07-.34-.07-.12,0-.23.04-.34.1-.25.14-.39.35-.41.63-.02.21.06.48.24.8.22.4.44.64.64.73.21.08.42.06.64-.06.21-.12.34-.27.39-.45.04-.18.03-.4-.05-.66M34.88,5.67l.19.68-.43.12.49,1.7c.07.24.1.47.08.7-.01.23-.08.45-.19.65-.11.2-.25.36-.4.47-.21.16-.49.28-.82.38-.19.06-.41.1-.65.14-.24.04-.44.04-.62,0-.18-.03-.35-.11-.52-.22-.17-.11-.3-.24-.39-.39-.15-.23-.25-.45-.31-.64l-.68-2.38,1.23-.35.7,2.43c.06.22.17.37.32.46.16.09.34.1.56.04.21-.06.36-.17.45-.32.08-.16.1-.34.03-.56l-.7-2.44c.56-.16,1.11-.32,1.67-.48ZM26.09,8.67l1.55,3.85,1.19-.48-.63-1.55,1.3-.53.63,1.56,1.19-.48-1.55-3.85-1.19.48.54,1.34-1.3.53-.55-1.35-1.19.48Z"></path>
      <path class="cls-3" d="M35.78,5.62l3.86-.54.14,1.02-1.3.18.44,3.09-1.27.18-.44-3.09-1.29.18-.14-1.02ZM40.4,5.08h1.28v1.45h1.4v-1.45h1.28v4.15h-1.28v-1.68h-1.4v1.68h-1.28v-4.15ZM47.4,8.96l.11.71,1.33.19-.97-4.33-1.39-.2-2.12,3.89,1.3.18.29-.65,1.45.2ZM47.26,8.04l-.91-.13.66-1.41.25,1.54ZM49.97,5.82l2.05.59c.45.13.75.33.91.61.16.27.19.61.07,1-.12.4-.33.68-.64.84-.31.16-.71.16-1.21.02l-.67-.19-.43,1.48-1.24-.35,1.14-3.99ZM50.72,7.87l.3.09c.24.07.42.08.54.02.12-.05.2-.15.23-.28.03-.12.03-.24-.03-.35-.06-.11-.2-.2-.43-.26l-.35-.1-.25.89Z"></path>
      <path class="cls-3" d="M54.62,7.18l1.79.65c.35.13.62.28.8.46.18.17.31.38.39.61.08.23.1.47.08.74-.02.26-.09.52-.18.79-.16.43-.32.74-.5.93-.18.19-.38.33-.6.43-.22.09-.44.13-.65.11-.29-.03-.54-.08-.75-.16l-1.79-.65.6-1.66-.41-.15.21-.59.41.15.6-1.66ZM55.5,8.5l-.28.77.58.21-.21.59-.58-.21-.28.77.3.11c.25.09.44.13.57.11.13-.02.25-.09.36-.2.11-.12.22-.33.33-.64.15-.41.19-.72.11-.92-.08-.2-.28-.36-.59-.47l-.3-.11ZM57.8,10.81c-.23.42-.35.82-.34,1.2.01.37.12.7.31.98.2.28.5.53.91.76.4.22.78.33,1.13.33.35,0,.68-.1.97-.29.29-.19.56-.5.79-.92.32-.58.41-1.13.26-1.63-.15-.51-.52-.93-1.13-1.26-.59-.32-1.14-.42-1.65-.27-.51.15-.93.52-1.26,1.11ZM58.92,11.44c.21-.37.42-.6.65-.68.23-.09.45-.06.68.06.24.13.38.31.43.55.05.23-.02.52-.21.87-.22.41-.45.65-.67.73-.22.08-.45.06-.69-.08-.24-.13-.37-.31-.42-.55-.05-.24.03-.54.23-.9Z"></path>
      <polygon class="cls-3" points="46.14 9.6 47.09 9.72 47.01 10.35 46.06 10.22 46.14 9.6"></polygon>
      <polygon class="cls-3" points="48.41 5.22 47.68 5.12 47.32 4.65 46.86 5.02 46.15 4.93 46.91 4.2 47.85 4.33 48.41 5.22"></polygon>
      <path class="cls-3" d="M61.05,9.54s.09-.06.2-.08l.24-.07.11-.09.03-.08-.03-.08-.04-.07-.06-.05-.08-.03h-.12s-.12.05-.12.05l-.27-.17c.09-.15.22-.23.38-.25.16-.02.32.02.48.13l.18.19.1.2v.18s-.06.19-.06.19l-.18.14c-.06.02-.15.04-.26.04l-.19.04-.11.12-.04.07-.29-.18.02-.03.11-.16Z"></path>
      <polygon class="cls-3" points="37.4 74.12 36.83 74.01 36.57 73.62 36.19 73.89 35.64 73.78 36.27 73.25 37 73.39 37.4 74.12"></polygon>
      <path class="cls-4" d="M42.16,13.74c-15.67,0-28.42,12.74-28.42,28.42s12.75,28.42,28.42,28.42,28.42-12.75,28.42-28.42-12.75-28.42-28.42-28.42M42.16,69.78c-15.22,0-27.62-12.39-27.62-27.62s12.39-27.62,27.62-27.62,27.62,12.39,27.62,27.62-12.39,27.62-27.62,27.62Z"></path>
      <rect class="cls-5" x="352.07" y="37.45" width=".03" height=".25"></rect>
      <rect class="cls-5" x="97.49" y="37.45" width=".24" height=".25"></rect>
      <rect class="cls-5" x="352.07" y="33.47" width=".03" height=".25"></rect>
      <rect class="cls-5" x="97.7" y="33.47" width=".03" height=".25"></rect>
      <polygon class="cls-2" points="97.48 37.3 97.48 24.11 100.2 24.11 100.2 29.3 105.49 29.3 105.49 24.11 108.21 24.11 108.21 37.3 105.49 37.3 105.49 31.53 100.2 31.53 100.2 37.3 97.48 37.3"></polygon>
      <path class="cls-2" d="M109.91,30.78c0-2.21.62-3.94,1.87-5.19,1.13-1.14,2.67-1.71,4.62-1.71,2.07,0,3.68.64,4.85,1.92,1.12,1.22,1.67,2.86,1.67,4.92s-.56,3.68-1.67,4.91c-1.17,1.26-2.77,1.89-4.82,1.89s-3.68-.62-4.83-1.85c-1.13-1.21-1.69-2.83-1.69-4.88M112.7,30.69c0,1.3.29,2.35.86,3.15.66.94,1.61,1.4,2.86,1.4s2.21-.47,2.86-1.41c.56-.8.83-1.86.83-3.18s-.27-2.36-.82-3.15c-.64-.9-1.59-1.35-2.87-1.35s-2.24.46-2.89,1.37c-.56.79-.83,1.85-.83,3.17Z"></path>
      <path class="cls-2" d="M113.17,23.35l1.92-2.65h2.38l1.89,2.65h-2.07l-1.05-1.33-1,1.33h-2.08ZM115.19,38.8h2.71v2.67h-2.71v-2.67Z"></path>
      <rect class="cls-2" x="124.46" y="24.11" width="2.72" height="13.19"></rect>
      <path class="cls-2" d="M143.55,32.45l2.63.82c-.79,2.84-2.65,4.26-5.57,4.26-1.93,0-3.45-.66-4.56-1.97-1.04-1.22-1.56-2.8-1.56-4.73,0-2.04.52-3.68,1.56-4.92,1.12-1.34,2.7-2.02,4.72-2.02,1.64,0,2.97.48,4,1.43.61.57,1.07,1.38,1.37,2.43l-2.68.63c-.16-.69-.49-1.23-.99-1.62-.5-.39-1.12-.59-1.84-.59-2.23,0-3.35,1.49-3.35,4.46s1.1,4.63,3.29,4.63c1.55,0,2.54-.93,2.97-2.8"></path>
      <polygon class="cls-2" points="148.51 37.3 148.51 24.11 151.23 24.11 151.23 29.3 156.52 29.3 156.52 24.11 159.24 24.11 159.24 37.3 156.52 37.3 156.52 31.53 151.23 31.53 151.23 37.3 148.51 37.3"></polygon>
      <path class="cls-2" d="M162,24.11h2.71v7.15c0,1.13.03,1.87.1,2.2.24,1.19,1.12,1.79,2.62,1.79s2.25-.53,2.44-1.6c.08-.43.12-1.18.12-2.24v-7.3h2.71v.58c.39-.25.6-.63.61-1.15h-.88v-1.77h1.81v1.27c0,.95-.22,1.62-.65,2.02-.23.22-.53.39-.9.53v5.45c0,1.3-.03,2.17-.09,2.62-.14,1.04-.45,1.84-.93,2.39-.87.98-2.26,1.47-4.17,1.47-2.12,0-3.62-.52-4.48-1.57-.39-.46-.64-.95-.76-1.46-.18-.76-.27-1.87-.27-3.35v-7.04Z"></path>
      <path class="cls-2" d="M165.32,23.38h-1.17c0-.09,0-.2,0-.33,0-.55.13-1.01.39-1.37.29-.4.72-.59,1.27-.59.36,0,.89.15,1.6.45.48.22.85.32,1.13.32.43,0,.68-.26.74-.77h1.19c0,1.5-.55,2.25-1.62,2.25-.24,0-.44-.02-.61-.06-.15-.03-.53-.16-1.14-.41-.48-.19-.86-.28-1.14-.28-.41,0-.62.26-.63.78"></path>
      <polygon class="cls-2" points="183.79 37.3 183.79 26.34 179.81 26.34 179.81 24.11 190.48 24.11 190.48 26.34 186.5 26.34 186.5 37.3 183.79 37.3"></polygon>
      <polygon class="cls-2" points="192.24 37.3 192.24 24.11 194.96 24.11 194.96 29.3 200.25 29.3 200.25 24.11 202.97 24.11 202.97 37.3 200.25 37.3 200.25 31.53 194.96 31.53 194.96 37.3 192.24 37.3"></polygon>
      <path class="cls-2" d="M217.87,37.3h-2.95l-1.17-3h-5.36l-1.11,3h-2.88l5.23-13.19h2.87l5.37,13.19ZM212.88,32.08l-1.85-4.89-1.8,4.89h3.65Z"></path>
      <path class="cls-2" d="M207.93,23.35l1.92-2.65h2.38l1.89,2.65h-2.07l-1.05-1.33-1,1.33h-2.08ZM209.94,38.8h2.71v2.67h-2.71v-2.67Z"></path>
      <path class="cls-2" d="M219.3,37.3v-13.19h4.35c1.64,0,2.71.07,3.22.2.88.23,1.56.71,2.04,1.45.44.68.67,1.48.67,2.41,0,1.5-.53,2.62-1.58,3.34-.47.32-.94.53-1.41.63-.62.13-1.56.19-2.81.19h-1.76v4.98h-2.72ZM222.02,26.34v3.74h1.48c.79,0,1.33-.03,1.63-.08.62-.11,1.08-.37,1.36-.77.2-.29.3-.64.3-1.03,0-.46-.14-.85-.41-1.17-.27-.32-.64-.52-1.1-.6-.33-.06-.98-.09-1.95-.09h-1.31Z"></path>
      <path class="cls-2" d="M237.01,24.11h4.94c1.12,0,1.98.09,2.58.26,1.6.48,2.7,1.61,3.3,3.38.28.83.42,1.87.42,3.11,0,2.25-.62,3.96-1.86,5.12-.46.44-1.09.78-1.89,1.04-.59.18-1.39.28-2.41.28h-5.09v-5.76h-1.38v-1.68h1.38v-5.76ZM239.71,26.34v3.53h2.87v1.68h-2.87v3.54h2.03c.88,0,1.52-.07,1.94-.21.54-.19.94-.52,1.2-.99.39-.67.58-1.71.58-3.1,0-1.72-.32-2.92-.95-3.59-.33-.34-.74-.57-1.24-.69-.4-.1-1.18-.14-2.33-.14h-1.23Z"></path>
      <path class="cls-2" d="M249.46,30.78c0-2.21.62-3.94,1.87-5.19,1.13-1.14,2.67-1.71,4.62-1.71,2.07,0,3.68.64,4.85,1.92,1.12,1.22,1.67,2.86,1.67,4.92s-.56,3.68-1.67,4.91c-1.17,1.26-2.77,1.89-4.82,1.89s-3.68-.62-4.83-1.85c-1.13-1.21-1.69-2.83-1.69-4.88M252.25,30.69c0,1.3.29,2.35.86,3.15.66.94,1.61,1.4,2.86,1.4s2.21-.47,2.86-1.41c.56-.8.83-1.86.83-3.18s-.27-2.36-.82-3.15c-.63-.9-1.59-1.35-2.87-1.35s-2.24.46-2.89,1.37c-.56.79-.83,1.85-.83,3.17Z"></path>
      <path class="cls-2" d="M256.49,23.35h-1.24c0-.17,0-.33,0-.5,0-.17.03-.34.09-.5.09-.24.22-.44.41-.6.19-.16.37-.32.56-.49.2-.16.3-.3.32-.41.05-.28-.08-.46-.39-.57-.32-.11-.59-.07-.83.11-.14.11-.26.36-.35.73-.2-.02-.4-.05-.61-.07-.2-.03-.41-.05-.61-.08.01-.17.02-.29.04-.38.08-.41.29-.73.62-.98.33-.24.7-.39,1.1-.44.78-.07,1.41.12,1.89.57.51.48.62,1.02.32,1.61-.1.22-.25.41-.43.57-.19.16-.37.32-.55.47-.15.14-.24.24-.27.31,0,.02-.02.05-.04.11-.03.13-.03.31-.02.55"></path>
      <polygon class="cls-2" points="272.72 37.3 267.93 24.11 270.86 24.11 274.26 33.88 277.55 24.11 280.42 24.11 275.62 37.3 272.72 37.3"></polygon>
      <rect class="cls-2" x="281.71" y="24.11" width="2.72" height="13.19"></rect>
      <polygon class="cls-2" points="287 37.3 287 24.11 297.62 24.11 297.62 26.34 289.71 26.34 289.71 29.26 297.03 29.26 297.03 31.49 289.71 31.49 289.71 35.08 297.88 35.08 297.88 37.3 287 37.3"></polygon>
      <path class="cls-2" d="M289.17,23.35l1.92-2.65h2.38l1.89,2.65h-2.07l-1.05-1.33-1,1.33h-2.08ZM291.19,38.8h2.71v2.67h-2.71v-2.67Z"></path>
      <polygon class="cls-2" points="303.55 37.3 303.55 26.34 299.58 26.34 299.58 24.11 310.24 24.11 310.24 26.34 306.27 26.34 306.27 37.3 303.55 37.3"></polygon>
      <polygon class="cls-2" points="317.23 37.3 317.23 24.11 319.88 24.11 325.36 32.91 325.36 24.11 327.88 24.11 327.88 37.3 325.16 37.3 319.75 28.7 319.75 37.3 317.23 37.3"></polygon>
      <path class="cls-2" d="M342.84,37.3h-2.95l-1.17-3h-5.36l-1.11,3h-2.88l5.23-13.19h2.87l5.37,13.19ZM337.86,32.08l-1.85-4.89-1.8,4.89h3.65Z"></path>
      <polygon class="cls-2" points="344.24 37.3 344.24 24.11 348.29 24.11 350.73 33.12 353.13 24.11 357.2 24.11 357.2 37.3 354.68 37.3 354.68 26.91 352.02 37.3 349.41 37.3 346.75 26.91 346.75 37.3 344.24 37.3"></polygon>
      <path class="cls-4" d="M352.5,57.31c0,.9.17,1.56.52,1.98.35.42.78.63,1.29.63.55,0,1.01-.22,1.39-.64.38-.43.57-1.06.57-1.9s-.18-1.53-.54-1.96c-.36-.43-.82-.64-1.37-.64s-.98.21-1.33.63c-.35.42-.52,1.05-.52,1.91M350.49,62.27l2.57.31c.04.3.14.51.29.62.22.16.55.24,1.01.24.59,0,1.03-.09,1.32-.26.2-.12.35-.31.45-.57.07-.19.1-.53.1-1.03v-1.24c-.67.92-1.52,1.39-2.54,1.39-1.14,0-2.05-.48-2.71-1.45-.52-.76-.79-1.71-.79-2.84,0-1.42.34-2.51,1.03-3.26.68-.75,1.54-1.13,2.56-1.13s1.92.46,2.6,1.38v-1.2h2.1v7.62c0,1-.08,1.75-.25,2.25-.16.5-.4.88-.7,1.17-.3.28-.7.5-1.19.66-.5.16-1.13.24-1.89.24-1.44,0-2.46-.25-3.06-.74-.6-.5-.9-1.12-.9-1.88,0-.07,0-.17,0-.27ZM348.43,61.73h-2.24v-4.33c0-.92-.05-1.51-.14-1.78-.1-.27-.25-.48-.47-.63-.22-.15-.48-.22-.79-.22-.39,0-.74.11-1.06.32-.31.21-.53.5-.64.85-.12.35-.17,1-.17,1.95v3.84h-2.24v-8.5h2.08v1.25c.74-.95,1.68-1.43,2.81-1.43.5,0,.95.09,1.36.27.41.18.73.41.94.68.21.28.36.59.44.94.08.35.13.85.13,1.51v5.27ZM330.89,52.14h-1.03c0-.12,0-.22,0-.29,0-.56.14-.99.41-1.29.27-.3.62-.45,1.05-.45.19,0,.36.02.52.06.16.04.45.16.88.34.43.19.76.28,1,.28.17,0,.31-.05.43-.16.11-.11.19-.29.22-.54h1.03c0,.73-.14,1.25-.4,1.56-.26.31-.6.47-1.01.47-.18,0-.36-.02-.53-.06-.12-.03-.43-.15-.92-.34-.49-.19-.85-.29-1.07-.29-.17,0-.31.05-.4.16-.1.1-.14.29-.15.55ZM337.28,53.24h2.24v1.61c0,.66-.06,1.18-.17,1.55-.11.37-.32.71-.63,1-.47.46-1.2.77-2.19.93v3.4h-2.08v-1.27c-.67.99-1.6,1.48-2.81,1.48s-2.09-.48-2.52-1.44c-.2-.46-.3-1.08-.3-1.89v-5.39h2.24v3.91c0,1.12.04,1.85.13,2.2.06.26.21.47.45.64.22.16.49.24.83.24.38,0,.72-.1,1.03-.31.31-.21.52-.47.63-.79.11-.31.17-1.08.17-2.3v-3.59h2.24v4.17c.74-.15,1.25-.43,1.55-.83.18-.25.28-.61.29-1.1h-1.08v-2.24ZM322.08,61.73l-3.42-8.5h2.36l1.6,4.33.46,1.45c.12-.37.2-.61.23-.73.08-.24.16-.48.24-.72l1.62-4.33h2.31l-3.37,8.5h-2.02ZM312.93,61.73h-2.24v-4.33c0-.92-.05-1.51-.14-1.78-.1-.27-.25-.48-.47-.63-.22-.15-.48-.22-.79-.22-.39,0-.74.11-1.06.32-.31.21-.53.5-.64.85-.12.35-.17,1-.17,1.95v3.84h-2.24v-8.5h2.08v1.25c.74-.95,1.68-1.43,2.81-1.43.5,0,.95.09,1.36.27.41.18.73.41.94.68.21.28.36.59.44.94.08.35.13.85.13,1.51v5.27ZM300.47,49.39h-1.41l-2.21-2.26h2.5l1.11,2.26ZM296.67,52.17l1.68-2.36h2.07l1.66,2.36h-1.8l-.92-1.2-.86,1.2h-1.82ZM301.14,56.77c-.02-.65-.18-1.15-.5-1.49-.32-.34-.71-.51-1.17-.51-.49,0-.89.18-1.21.54-.32.36-.47.85-.47,1.46h3.35ZM301.01,59.05l2.24.38c-.29.82-.74,1.45-1.36,1.88-.62.43-1.4.64-2.33.64-1.48,0-2.57-.48-3.28-1.45-.56-.77-.84-1.75-.84-2.93,0-1.41.37-2.51,1.1-3.31.73-.8,1.66-1.2,2.79-1.2,1.26,0,2.26.42,2.99,1.25.73.83,1.08,2.11,1.04,3.84h-5.61c.02.67.2,1.18.54,1.56.34.37.77.56,1.29.56.35,0,.65-.1.88-.29.24-.19.42-.5.54-.92ZM288.21,57.32c0,.88.14,1.54.42,1.96.39.6.91.9,1.55.9.5,0,.92-.21,1.27-.64.35-.43.52-1.1.52-2.01,0-.97-.18-1.68-.53-2.11-.35-.43-.8-.65-1.35-.65s-.99.21-1.35.63c-.36.42-.54,1.06-.54,1.92ZM286,61.73v-11.72h2.24v4.23c.69-.79,1.51-1.18,2.46-1.18,1.03,0,1.89.37,2.56,1.12.68.75,1.02,1.83,1.02,3.23s-.34,2.57-1.03,3.36c-.69.78-1.53,1.18-2.52,1.18-.49,0-.96-.13-1.43-.37-.47-.25-.88-.61-1.22-1.09v1.25h-2.08ZM279.28,61.73h-2.24v-4.33c0-.92-.05-1.51-.14-1.78-.1-.27-.25-.48-.47-.63-.22-.15-.48-.22-.79-.22-.39,0-.74.11-1.06.32-.31.21-.53.5-.64.85-.12.35-.17,1-.17,1.95v3.84h-2.24v-8.5h2.08v1.25c.74-.95,1.68-1.43,2.81-1.43.5,0,.95.09,1.36.27.41.18.73.41.94.68.21.28.36.59.44.94.08.35.13.85.13,1.51v5.27ZM265.28,48.69c.3-.03.5-.06.58-.09.28-.07.43-.19.43-.37,0-.12-.07-.23-.22-.31-.23-.12-.58-.18-1.07-.18-.16,0-.41.01-.75.03l-.09-.81c.21-.04.59-.06,1.15-.05.66,0,1.2.11,1.62.32.46.23.7.54.71.94.02.56-.46.89-1.46,1.02v.39h-.9v-.88ZM263.02,52.17l1.68-2.36h2.07l1.66,2.36h-1.8l-.92-1.2-.86,1.2h-1.82ZM267.49,56.77c-.02-.65-.18-1.15-.5-1.49-.32-.34-.71-.51-1.17-.51-.49,0-.89.18-1.21.54-.32.36-.47.85-.47,1.46h3.35ZM267.36,59.05l2.24.38c-.29.82-.74,1.45-1.36,1.88-.62.43-1.4.64-2.33.64-1.48,0-2.57-.48-3.28-1.45-.56-.77-.84-1.75-.84-2.93,0-1.41.37-2.51,1.1-3.31.73-.8,1.66-1.2,2.79-1.2,1.26,0,2.26.42,2.99,1.25.73.83,1.08,2.11,1.04,3.84h-5.61c.02.67.2,1.18.54,1.56.34.37.77.56,1.29.56.35,0,.65-.1.88-.29.24-.19.42-.5.54-.92ZM257.9,61.73v-8.5h2.24v8.5h-2.24ZM257.9,52.09v-2.08h2.24v2.08h-2.24ZM253.68,61.73h-2.24v-8.5h2.08v1.21c.36-.57.68-.94.97-1.12.29-.18.61-.26.97-.26.51,0,1.01.14,1.48.42l-.7,1.96c-.38-.25-.73-.37-1.06-.37s-.58.09-.8.26c-.22.17-.39.49-.52.94-.13.45-.19,1.4-.19,2.85v2.62ZM249.96,53.24v1.78h-1.54v3.44c0,.7.01,1.1.04,1.22.03.11.1.21.2.29.1.07.23.11.38.11.21,0,.51-.07.91-.22l.19,1.75c-.52.22-1.11.34-1.77.34-.4,0-.77-.07-1.09-.2-.32-.14-.56-.31-.71-.53-.15-.22-.26-.51-.32-.88-.05-.26-.07-.79-.07-1.59v-3.72h-1.03v-1.78h1.03v-1.69l2.24-1.33v3.01h1.54ZM239.96,53.24v1.78h-1.54v3.44c0,.7.01,1.1.04,1.22.03.11.1.21.2.29.1.07.23.11.38.11.21,0,.51-.07.91-.22l.19,1.75c-.52.22-1.11.34-1.77.34-.4,0-.77-.07-1.09-.2-.32-.14-.56-.31-.71-.53-.15-.22-.26-.51-.32-.88-.05-.26-.07-.79-.07-1.59v-3.72h-1.03v-1.78h1.03v-1.69l2.24-1.33v3.01h1.54ZM228.89,52.14l1.11-2.39h2.5l-2.21,2.39h-1.41ZM231.66,57.67c-.29.1-.74.21-1.37.34-.62.13-1.03.26-1.22.39-.29.21-.44.47-.44.79s.12.59.35.82c.23.23.53.34.89.34.4,0,.79-.13,1.16-.4.27-.2.45-.45.53-.74.06-.19.09-.56.09-1.09v-.45ZM228.65,55.86l-2.03-.36c.23-.83.62-1.44,1.18-1.84.56-.4,1.39-.6,2.49-.6,1,0,1.75.12,2.24.35.49.24.83.54,1.03.9.2.37.3,1.03.3,2.01l-.03,2.62c0,.74.04,1.3.11,1.65.07.35.2.73.4,1.14h-2.23c-.06-.15-.13-.37-.22-.65-.04-.13-.06-.22-.08-.26-.38.38-.79.66-1.23.85-.44.19-.9.28-1.39.28-.87,0-1.56-.24-2.06-.71-.5-.47-.75-1.07-.75-1.8,0-.48.11-.91.34-1.28.23-.37.55-.66.96-.86.41-.2,1.01-.37,1.78-.52,1.05-.2,1.78-.38,2.18-.55v-.23c0-.44-.11-.75-.32-.94-.22-.19-.62-.28-1.21-.28-.4,0-.71.08-.94.24-.23.16-.41.44-.55.84ZM219.19,50.01v4.34c.73-.86,1.6-1.3,2.61-1.3.52,0,.99.1,1.41.29.42.19.73.44.94.74.21.3.36.63.43.99.08.36.12.92.12,1.69v4.98h-2.24v-4.48c0-.89-.04-1.45-.13-1.69-.09-.24-.24-.43-.46-.57-.22-.14-.49-.21-.82-.21-.38,0-.71.09-1.01.27-.3.18-.51.45-.65.82-.14.36-.21.9-.21,1.62v4.25h-2.24v-11.72h2.24ZM209.13,57.35c0,.96.19,1.66.57,2.12.38.46.84.68,1.38.68s.95-.21,1.3-.63c.35-.42.52-1.11.52-2.07,0-.89-.18-1.56-.53-1.99-.35-.43-.8-.65-1.32-.65s-1,.21-1.36.64c-.36.43-.54,1.06-.54,1.89ZM206.92,53.24h2.1v1.25c.27-.43.64-.77,1.1-1.03.46-.26.98-.39,1.54-.39.98,0,1.82.39,2.51,1.16.69.77,1.03,1.85,1.03,3.23s-.35,2.52-1.04,3.31c-.69.79-1.53,1.18-2.52,1.18-.47,0-.89-.09-1.28-.28-.38-.19-.78-.5-1.2-.96v4.25h-2.24v-11.72ZM193.09,64.94v-2.24h2.24v2.24h-2.24ZM199.01,53.24h2.24v1.61c0,.66-.06,1.18-.17,1.55-.11.37-.32.71-.63,1-.47.46-1.2.77-2.19.93v3.4h-2.08v-1.27c-.67.99-1.6,1.48-2.81,1.48s-2.09-.48-2.52-1.44c-.2-.46-.3-1.08-.3-1.89v-5.39h2.24v3.91c0,1.12.04,1.85.13,2.2.06.26.21.47.45.64.22.16.49.24.83.24.38,0,.72-.1,1.03-.31.31-.21.52-.47.63-.79.11-.31.17-1.08.17-2.3v-3.59h2.24v4.17c.74-.15,1.25-.43,1.55-.83.18-.25.28-.61.29-1.1h-1.08v-2.24ZM180.68,59.34l2.26-.34c.1.43.29.76.58.99.29.23.7.34,1.23.34.58,0,1.02-.11,1.31-.32.2-.15.29-.35.29-.6,0-.17-.05-.31-.16-.42-.11-.11-.36-.21-.75-.3-1.81-.4-2.96-.77-3.45-1.1-.67-.46-1.01-1.1-1.01-1.92,0-.74.29-1.36.87-1.86.58-.5,1.48-.75,2.7-.75s2.03.19,2.59.57c.57.38.95.94,1.17,1.69l-2.11.39c-.09-.33-.26-.59-.52-.77-.25-.18-.62-.26-1.09-.26-.59,0-1.02.08-1.28.25-.17.12-.26.27-.26.46,0,.16.07.3.22.41.2.15.91.36,2.11.63,1.2.27,2.04.61,2.51,1,.47.4.71.96.71,1.67,0,.78-.32,1.45-.98,2.01-.65.56-1.61.84-2.89.84-1.16,0-2.07-.23-2.75-.7-.67-.47-1.12-1.1-1.32-1.9ZM175.07,52.14h-1.41l-2.21-2.39h2.5l1.11,2.39ZM172.38,61.73v-8.5h2.24v8.5h-2.24ZM165.62,61.73l-3.42-8.5h2.36l1.6,4.33.46,1.45c.12-.37.2-.61.23-.73.08-.24.16-.48.24-.72l1.62-4.33h2.31l-3.37,8.5h-2.02ZM154.18,61.73v-8.5h2.24v8.5h-2.24ZM154.18,52.09v-2.08h2.24v2.08h-2.24ZM145.38,52.14l1.11-2.39h2.5l-2.21,2.39h-1.41ZM150.76,53.24h2.24v1.61c0,.66-.06,1.18-.17,1.55-.11.37-.33.71-.64,1-.36.35-.85.62-1.47.82-.13.96-.53,1.78-1.19,2.45-.83.85-1.88,1.28-3.13,1.28-.8,0-1.54-.18-2.22-.53-.72-.37-1.26-.89-1.62-1.57-.36-.67-.54-1.49-.54-2.47,0-.77.18-1.49.55-2.17.38-.71.91-1.25,1.57-1.61.67-.36,1.41-.55,2.25-.55,1.28,0,2.34.41,3.16,1.24.74.76,1.15,1.69,1.22,2.8.69-.28,1.05-.82,1.07-1.62h-1.08v-2.24ZM144.33,57.5c0,.82.2,1.46.6,1.94.38.45.87.67,1.48.67s1.09-.22,1.47-.67c.4-.47.6-1.13.6-1.95s-.2-1.45-.6-1.92c-.37-.45-.86-.67-1.47-.67s-1.1.22-1.48.67c-.4.47-.6,1.12-.6,1.94ZM127.83,53.24h2.06v1.16c.74-.89,1.62-1.34,2.64-1.34.54,0,1.01.11,1.41.34.4.22.73.56.98,1.02.37-.45.78-.79,1.21-1.02.43-.22.89-.34,1.38-.34.62,0,1.15.13,1.58.38.43.25.75.62.97,1.12.16.36.23.95.23,1.76v5.42h-2.24v-4.85c0-.84-.08-1.39-.23-1.63-.21-.32-.53-.48-.96-.48-.31,0-.61.1-.89.29-.28.19-.48.47-.6.84-.12.37-.18.95-.18,1.75v4.07h-2.24v-4.65c0-.82-.04-1.36-.12-1.6-.08-.24-.2-.42-.37-.54-.17-.12-.4-.17-.68-.17-.35,0-.66.09-.93.28-.28.19-.47.46-.59.81-.12.35-.18.94-.18,1.75v4.12h-2.24v-8.5ZM118.9,61.73v-8.5h2.24v8.5h-2.24ZM118.9,52.09v-2.08h2.24v2.08h-2.24ZM112.29,48.69c.3-.03.5-.06.58-.09.28-.07.43-.19.43-.37,0-.12-.07-.23-.22-.31-.23-.12-.58-.18-1.07-.18-.16,0-.41.01-.75.03l-.09-.81c.21-.04.59-.06,1.15-.05.66,0,1.2.11,1.61.32.46.23.7.54.71.94.02.56-.46.89-1.46,1.02v.39h-.9v-.88ZM110.08,52.17l1.68-2.36h2.07l1.66,2.36h-1.8l-.92-1.2-.86,1.2h-1.82ZM110.68,57.5c0,.84.2,1.49.6,1.94.4.45.89.67,1.48.67s1.07-.22,1.47-.67c.4-.45.59-1.1.59-1.95s-.2-1.47-.59-1.92c-.4-.45-.89-.67-1.47-.67s-1.08.22-1.48.67c-.4.45-.6,1.09-.6,1.94ZM108.38,57.38c0-.75.18-1.47.55-2.17.37-.7.89-1.23,1.56-1.6.67-.37,1.42-.55,2.26-.55,1.28,0,2.34.42,3.16,1.25.82.84,1.23,1.89,1.23,3.17s-.41,2.35-1.24,3.2c-.83.85-1.87,1.27-3.13,1.27-.78,0-1.52-.18-2.23-.53-.7-.35-1.24-.87-1.61-1.55-.37-.68-.55-1.51-.55-2.49ZM99.47,51.99v3.13h2.5v1.49h-2.5v3.14h1.77c.78,0,1.35-.06,1.69-.19.46-.16.8-.45,1.04-.88.34-.6.5-1.52.5-2.76,0-.88-.07-1.56-.21-2.03-.14-.48-.35-.86-.62-1.16-.27-.29-.63-.5-1.07-.61-.34-.08-1.02-.13-2.03-.13h-1.07ZM97.09,50.01h4.32c.99,0,1.74.08,2.25.23.69.21,1.28.58,1.77,1.1.49.52.86,1.16,1.11,1.91.25.74.37,1.67.37,2.77,0,.96-.14,1.83-.41,2.61-.27.78-.68,1.42-1.21,1.94-.41.39-.96.7-1.65.92-.52.17-1.22.25-2.1.25h-4.44v-5.12h-1.21v-1.49h1.21v-5.11Z"></path>
      <polygon class="cls-3" points="34.93 78.8 35.88 78.9 35.81 79.54 34.86 79.43 34.93 78.8"></polygon>
    </g>
  </g>
</svg>
